<svg xmlns="http://www.w3.org/2000/svg" width="529.589" height="621.739" viewBox="0 0 529.589 621.739">
  <g id="Group_677" data-name="Group 677" opacity="0.279">
    <path id="Path_115" data-name="Path 115" d="M393.138,275.082,61.4,21.4V234.428l166.953-85.1V362.9L393.138,488.653Z" transform="translate(136.451 -21.4)" fill="#465a65"/>
    <path id="Path_116" data-name="Path 116" d="M152.283,146.428,24.9,49.4V265.68l127.383,97.57Z" transform="translate(-24.9 102.376)" fill="#465a65" opacity="0.7"/>
    <path id="Path_117" data-name="Path 117" d="M253.3,335.467V118.645L216.979,91,48.4,179.355Z" transform="translate(78.983 286.271)" fill="#465a65" opacity="0.7"/>
    <path id="Path_118" data-name="Path 118" d="M48.4,107.3Z" transform="translate(78.983 358.326)" fill="#465a65" opacity="0.8"/>
    <path id="Path_119" data-name="Path 119" d="M118.867,60.7,48.4,96.476,216.979,224.943l68.841-35.776h0L118.867,61.242Z" transform="translate(78.983 152.328)" fill="#465a65" opacity="0.8"/>
    <path id="Path_120" data-name="Path 120" d="M61.4,130.1v.542L228.353,258.57V45Z" transform="translate(136.451 82.925)" fill="#465a65"/>
    <path id="Path_121" data-name="Path 121" d="M61.4,130.1v.542L228.353,258.57V45Z" transform="translate(136.451 82.925)" fill="#465a65" opacity="0.8"/>
    <path id="Path_122" data-name="Path 122" d="M48.4,67.3V284.123h0l168.579-88.355Z" transform="translate(78.983 181.504)" fill="#465a65" opacity="0.7"/>
    <path id="Path_123" data-name="Path 123" d="M48.4,67.3V284.123h0l168.579-88.355Z" transform="translate(78.983 181.504)" fill="#465a65" opacity="0.8"/>
  </g>
</svg>
