<?xml version="1.0" encoding="UTF-8"?>
<svg width="239px" height="132px" viewBox="0 0 239 132" version="1.1" xmlns="http://www.w3.org/2000/svg" xmlns:xlink="http://www.w3.org/1999/xlink">
    <!-- Generator: Sketch 49.2 (51160) - http://www.bohemiancoding.com/sketch -->
    <title>Evergreen_Horticulture_WhiteLogo</title>
    <desc>Created with Sketch.</desc>
    <defs>
        <path d="M77.7166388,46.9804923 C73.8391516,50.7140615 69.0730312,54.2489538 65.3529589,55.0896923 C73.1384008,64.1844923 83.0284646,69.8571077 92.2157465,74.7126769 C102.260856,80.0228 113.158375,82.4174154 120.700755,77.8272 C127.027484,73.9782154 127.681857,64.9287692 122.762722,58.4966462 C114.112683,61.3539385 91.8565694,61.3309231 84.882915,56.4976923 C88.5461147,58.1517538 94.0617337,58.2725846 99.7960411,57.5134154 C111.651931,55.946 131.404976,50.3549538 125.316908,34.9942154 C120.473265,22.7730462 105.368194,24.3926185 95.7997309,30.6388923 C89.0410411,35.0504 83.2268414,41.6774769 77.7166388,46.9804923 Z M95.2347295,104.188615 C95.9276941,92.3296 89.7417918,82.2610462 80.530136,75.4224308 C75.0239958,71.3355077 68.9156161,67.6347692 63.3925496,59.2189231 C59.2980666,66.3834769 46.371755,75.5111077 39.435,83.5048923 C33.3496402,90.5191692 31.0980977,99.0869846 32.1302663,105.317723 C33.9430779,116.259169 46.4753442,123.437262 56.9348102,118.7428 C60.5529858,117.117508 62.5008697,115.554492 63.8262025,112.786892 C68.4779008,103.078462 68.4802705,83.2581538 67.2250127,76.0377538 C69.3997096,85.3447692 73.8080071,104.349385 69.7263881,114.4132 C77.8097337,120.492985 94.4476544,117.695262 95.2347295,104.188615 Z M60.6504816,55.4037846 L61.0915822,54.5864 C56.6524788,42.614 38.9705411,30.4706769 28.4068088,25.2635138 C13.2083045,17.7705508 -1.65336544,25.8608308 2.58329887,43.6232923 C5.75089518,56.8987692 32.642796,59.0507077 48.3903909,56.7610154 C30.1163697,63.5972615 5.73193768,59.7513231 3.2403796,56.7911385 C-3.43130878,66.7304 0.411648725,78.2509538 13.1808839,79.1678462 C20.1856827,79.6691077 28.2812153,77.3432 33.4231006,74.5485231 C43.6713258,68.9791385 55.7976983,60.8499692 60.6504816,55.4037846 Z M64.2016289,0.00409538462 C61.5401303,0.00409538462 59.8434334,0.459292308 59.0164122,1.39656 C58.0126799,2.53741231 57.7598003,4.96428308 58.2469405,8.81624615 C59.1670567,16.1127662 63.4091374,46.5232308 64.297432,52.7719077 C65.1068499,46.9459692 69.2771629,16.3067046 69.989762,9.04816 C70.3953173,4.90055077 70.1072309,2.44274462 69.0821714,1.31285846 C68.2835864,0.431944615 66.6881091,0.00409538462 64.2016289,0.00409538462 Z" id="path-1"></path>
        <radialGradient cx="50.0000368%" cy="50.0001121%" fx="50.0000368%" fy="50.0001121%" r="0.0281634273%" gradientTransform="translate(0.500000,0.500001),scale(0.950636,1.000000),translate(-0.500000,-0.500001)" id="radialGradient-3">
            <stop stop-color="#205528" offset="0%"></stop>
            <stop stop-color="#205528" offset="2.80899%"></stop>
            <stop stop-color="#2C7D37" offset="32.5843%"></stop>
            <stop stop-color="#349C3E" offset="54.4944%"></stop>
            <stop stop-color="#3AAD3E" offset="74.7191%"></stop>
            <stop stop-color="#35A43F" offset="84.8315%"></stop>
            <stop stop-color="#257437" offset="100%"></stop>
        </radialGradient>
        <path d="M8.12803116,1.38268308 C10.2522875,2.25276615 10.3653555,4.2592 9.88667847,11.3994185 C9.40698584,18.5381815 6.38461756,44.7788 6.38461756,44.7788 C7.9310085,33.3902462 10.4462635,14.5358738 10.9845212,9.04816 C11.3900765,4.90055077 11.1019901,2.44274462 10.0769306,1.31285846 C9.27834561,0.431944615 7.68286827,0.00409538462 5.1963881,0.00409538462 C2.53488952,0.00409538462 0.838192635,0.459292308 0.0111713881,1.39656 C0.0111713881,1.39656 3.70348442,-0.429541538 8.12803116,1.38268308 Z" id="path-4"></path>
        <radialGradient cx="50.0012508%" cy="50.0003402%" fx="50.0012508%" fy="50.0003402%" r="0.3036083%" gradientTransform="translate(0.500013,0.500003),scale(1.000000,0.249027),translate(-0.500013,-0.500003)" id="radialGradient-6">
            <stop stop-color="#FFFFFF" offset="0%"></stop>
            <stop stop-color="#237838" offset="100%"></stop>
        </radialGradient>
        <radialGradient cx="34.7119217%" cy="72.457883%" fx="34.7119217%" fy="72.457883%" r="0.112399582%" gradientTransform="translate(0.347119,0.724579),scale(0.876911,1.000000),translate(-0.347119,-0.724579)" id="radialGradient-7">
            <stop stop-color="#FFFFFB" offset="0%"></stop>
            <stop stop-color="#FFFFFB" offset="6%"></stop>
            <stop stop-color="#216E34" offset="94%"></stop>
            <stop stop-color="#216E34" offset="100%"></stop>
        </radialGradient>
        <radialGradient cx="33.3156481%" cy="70.8269465%" fx="33.3156481%" fy="70.8269465%" r="0.156315512%" gradientTransform="translate(0.333156,0.708269),scale(0.370346,1.000000),translate(-0.333156,-0.708269)" id="radialGradient-8">
            <stop stop-color="#FFFFFF" offset="0%"></stop>
            <stop stop-color="#E7EBE3" offset="24.7191%"></stop>
            <stop stop-color="#237838" offset="100%"></stop>
        </radialGradient>
        <radialGradient cx="50.8738167%" cy="60.8271439%" fx="50.8738167%" fy="60.8271439%" r="0.10996438%" gradientTransform="translate(0.508738,0.608271),scale(0.946797,1.000000),translate(-0.508738,-0.608271)" id="radialGradient-9">
            <stop stop-color="#FFFFFF" offset="0%"></stop>
            <stop stop-color="#FFFFFF" offset="39.3258%"></stop>
            <stop stop-color="#2A923F" offset="100%"></stop>
        </radialGradient>
        <radialGradient cx="38.6928803%" cy="66.9043125%" fx="38.6928803%" fy="66.9043125%" r="0.1896532%" gradientTransform="translate(0.386929,0.669043),scale(0.698313,1.000000),translate(-0.386929,-0.669043)" id="radialGradient-10">
            <stop stop-color="#FFFFFF" offset="0%"></stop>
            <stop stop-color="#FFFFFF" offset="21.3483%"></stop>
            <stop stop-color="#2DA341" offset="100%"></stop>
        </radialGradient>
        <radialGradient cx="72.796529%" cy="71.8829217%" fx="72.796529%" fy="71.8829217%" r="0.155550087%" gradientTransform="translate(0.727965,0.718829),scale(0.407490,1.000000),translate(-0.727965,-0.718829)" id="radialGradient-11">
            <stop stop-color="#FFFFFF" offset="0%"></stop>
            <stop stop-color="#EEF5E8" offset="16.8539%"></stop>
            <stop stop-color="#266833" offset="100%"></stop>
        </radialGradient>
        <radialGradient cx="56.0354064%" cy="61.0327775%" fx="56.0354064%" fy="61.0327775%" r="0.108233127%" gradientTransform="translate(0.560354,0.610328),scale(0.955907,1.000000),translate(-0.560354,-0.610328)" id="radialGradient-12">
            <stop stop-color="#FFFFFF" offset="0%"></stop>
            <stop stop-color="#237838" offset="100%"></stop>
        </radialGradient>
    </defs>
    <g id="Page-1" stroke="none" stroke-width="1" fill="none" fill-rule="evenodd">
        <g id="Evergreen_Horticulture_WhiteLogo" transform="translate(0.000000, -1.000000)">
            <g id="g10" transform="translate(119.500000, 66.500000) scale(-1, 1) rotate(-180.000000) translate(-119.500000, -66.500000) translate(0.000000, -0.000000)">
                <g id="g12" transform="translate(0.000000, 0.304615)">
                    <path d="M119.279958,1.34578062 C115.073422,1.34578062 112.259586,2.31608215 110.423416,4.39631077 C107.804572,7.36590462 108.003626,11.9791692 108.469439,15.6646769 C109.142769,21.0069538 111.582871,38.3514154 113.20103,49.7788923 C111.728099,47.9566154 110.077442,46.1089538 108.297806,44.2968308 C100.542831,36.4008615 91.0261629,29.1733877 89.4702932,28.2235969 C82.9390935,24.2412585 76.8364688,22.2227754 71.3296516,22.2227754 C65.1319008,22.2227754 59.9135085,24.7534523 55.8180099,29.7459969 C49.3338654,37.6501231 49.0481487,48.6348923 55.1243683,56.4584308 C55.1423102,56.4804308 55.1812408,56.5308615 55.240483,56.6029538 C51.6537904,61.3867692 49.8078031,68.7713231 50.6409178,75.0799077 C51.2834419,79.9361538 53.429364,83.8734769 56.8461161,86.4664308 C60.3407295,89.1192923 64.7148357,90.4646769 69.8441955,90.4646769 C74.8977252,90.4646769 80.5927635,89.1697231 86.7712181,86.6160308 C89.5522167,85.4669538 92.5749235,83.9564 95.6203116,82.2624 C95.3136062,82.5544923 95.0116402,82.8442154 94.7140751,83.1332615 C89.1199178,88.5496615 85.806755,93.9521846 83.6323966,101.196615 C80.190932,112.662338 83.0179703,121.751385 91.8091756,127.481538 C95.7242394,130.032185 100.426717,131.437815 105.048625,131.437815 C108.244996,131.437815 111.301894,130.793385 114.13401,129.522462 C116.816836,128.316862 118.686858,126.989754 120.131691,125.178985 C123.472275,128.0092 129.538677,128.830308 131.453724,129.023908 C132.436129,129.123754 133.429028,129.173508 134.406017,129.173508 C142.007639,129.173508 148.26971,126.2184 151.582873,121.065323 C155.111677,115.578523 155.659414,108.055877 153.128586,99.8850769 C151.255856,93.8445538 147.907147,88.2416615 143.896958,84.3094154 C145.805572,85.2828308 147.145123,85.9164308 147.586224,86.1212 C154.755547,89.4675692 161.257972,91.1656308 166.90697,91.1656308 C171.303081,91.1656308 175.175152,90.1262154 178.415531,88.0788615 C182.24901,85.6561538 184.745307,81.7516615 185.633602,76.7837231 C186.692176,70.8752 185.284242,64.0172923 182.118677,59.4040615 C183.547261,58.0996308 184.690127,56.4347385 185.731436,54.2181538 C188.850285,47.5795692 187.943371,39.6230154 183.362763,33.4521508 C179.320075,28.0066431 173.775343,25.2461846 166.884289,25.2461846 C163.87817,25.2461846 160.621541,25.7900923 157.205805,26.8653846 C147.230093,30.0026185 143.275084,33.9135077 137.198864,41.4859077 C133.071205,46.6264615 128.884982,51.0163077 124.875807,54.4208923 C126.332827,43.8835692 129.328113,21.9773908 129.939831,15.7608 C130.337601,11.6873815 130.394812,7.13717231 127.785446,4.25984308 C125.982113,2.27179108 123.28033,1.34578062 119.279958,1.34578062" id="path14" fill="#24201F" fill-rule="nonzero"></path>
                    <path d="M121.751881,59.7888923 C128.621946,55.0917231 134.792276,48.2476923 139.037065,42.9599077 C144.970088,35.5662154 148.499231,32.0722769 157.912987,29.1117877 C167.022408,26.2463723 175.703254,27.0871108 181.471752,34.8578154 C185.358718,40.0955077 186.430494,47.1883077 183.59804,53.2156308 C182.163701,56.2678769 180.596999,58.1923692 177.533669,59.5959692 C171.733687,62.2566154 156.200718,67.7132923 146.673894,65.7519077 C157.776899,68.5391385 174.653482,62.4075692 179.742218,60.1381846 C184.661014,66.5699692 186.016476,80.4885231 177.156888,86.0873538 C169.558313,90.8894462 158.896408,88.8001231 148.581154,83.9865231 C146.57132,83.0486462 131.796652,75.9788615 122.776602,67.7204 C121.598867,66.6400308 121.619856,67.2695692 122.820949,68.6630154 C127.880572,74.5424308 134.73845,80.0854154 139.933146,83.9909231 C149.401744,91.1114769 156.425839,109.178554 149.601475,119.791354 C145.899683,125.548246 138.480865,127.367477 131.691031,126.6804 C128.640227,126.372062 123.164892,125.270031 121.03962,122.774554 C125.120901,112.709385 124.478038,92.8586154 122.303341,83.5516 C123.558599,90.772 124.468898,111.507508 119.816861,121.213908 C118.490513,123.983538 116.786707,125.748277 113.167854,127.372554 C106.622098,130.312769 98.9334745,129.312615 93.0959164,125.5056 C84.3839263,119.828585 83.1093725,111.136892 85.889017,101.873877 C87.9807748,94.9032615 91.1815467,89.8327692 96.3532224,84.8252308 C101.537085,79.8044923 108.615006,73.7639692 113.271105,68.4876923 C114.286686,67.3376 114.117084,66.8400615 112.995882,67.7671077 C106.178627,73.4028308 94.4811686,80.8784308 85.8710751,84.4387077 C75.6380836,88.6681231 65.2605411,89.8943692 58.2709759,84.59 C50.1006289,78.3880308 52.2038966,64.3716615 57.2713059,57.8258154 C60.5458768,60.3030154 73.3882337,67.8788 93.5921969,65.5166769 C69.1363357,67.4347385 58.4940652,56.9546154 56.9859278,55.0142154 C51.1784986,47.5365846 52.2655085,37.7912615 57.6403003,31.2389508 C65.5878966,21.5525877 77.2196813,23.5135662 88.2421176,30.2350738 C89.5572946,31.0373292 98.9977946,38.1916615 106.616343,45.9471692 C111.437982,50.8568923 115.233884,55.9927077 117.026045,59.9669231 C117.026045,59.9669231 111.846584,23.6020062 110.806967,15.37052 C109.768028,7.13808615 111.68646,3.70246462 119.279958,3.70246462 C126.873116,3.70246462 128.392425,7.37741231 127.593163,15.5303754 C126.793562,23.6814769 121.751881,59.7888923 121.751881,59.7888923" id="path16" fill="#215428" fill-rule="nonzero"></path>
                    <g id="g18" transform="translate(55.078329, 7.513846)">
                        <g id="g20-Clipped">
                            <mask id="mask-2" fill="white">
                                <use xlink:href="#path-1"></use>
                            </mask>
                            <g id="path22"></g>
                            <g id="g20" mask="url(#mask-2)" fill="url(#radialGradient-3)" fill-rule="nonzero">
                                <path d="M77.7166388,46.9804923 C73.8391516,50.7140615 69.0730312,54.2489538 65.3529589,55.0896923 C73.1384008,64.1844923 83.0284646,69.8571077 92.2157465,74.7126769 C102.260856,80.0228 113.158375,82.4174154 120.700755,77.8272 C127.027484,73.9782154 127.681857,64.9287692 122.762722,58.4966462 C114.112683,61.3539385 91.8565694,61.3309231 84.882915,56.4976923 C88.5461147,58.1517538 94.0617337,58.2725846 99.7960411,57.5134154 C111.651931,55.946 131.404976,50.3549538 125.316908,34.9942154 C120.473265,22.7730462 105.368194,24.3926185 95.7997309,30.6388923 C89.0410411,35.0504 83.2268414,41.6774769 77.7166388,46.9804923 Z M95.2347295,104.188615 C95.9276941,92.3296 89.7417918,82.2610462 80.530136,75.4224308 C75.0239958,71.3355077 68.9156161,67.6347692 63.3925496,59.2189231 C59.2980666,66.3834769 46.371755,75.5111077 39.435,83.5048923 C33.3496402,90.5191692 31.0980977,99.0869846 32.1302663,105.317723 C33.9430779,116.259169 46.4753442,123.437262 56.9348102,118.7428 C60.5529858,117.117508 62.5008697,115.554492 63.8262025,112.786892 C68.4779008,103.078462 68.4802705,83.2581538 67.2250127,76.0377538 C69.3997096,85.3447692 73.8080071,104.349385 69.7263881,114.4132 C77.8097337,120.492985 94.4476544,117.695262 95.2347295,104.188615 Z M60.6504816,55.4037846 L61.0915822,54.5864 C56.6524788,42.614 38.9705411,30.4706769 28.4068088,25.2635138 C13.2083045,17.7705508 -1.65336544,25.8608308 2.58329887,43.6232923 C5.75089518,56.8987692 32.642796,59.0507077 48.3903909,56.7610154 C30.1163697,63.5972615 5.73193768,59.7513231 3.2403796,56.7911385 C-3.43130878,66.7304 0.411648725,78.2509538 13.1808839,79.1678462 C20.1856827,79.6691077 28.2812153,77.3432 33.4231006,74.5485231 C43.6713258,68.9791385 55.7976983,60.8499692 60.6504816,55.4037846 Z M64.2016289,0.00409538462 C61.5401303,0.00409538462 59.8434334,0.459292308 59.0164122,1.39656 C58.0126799,2.53741231 57.7598003,4.96428308 58.2469405,8.81624615 C59.1670567,16.1127662 63.4091374,46.5232308 64.297432,52.7719077 C65.1068499,46.9459692 69.2771629,16.3067046 69.989762,9.04816 C70.3953173,4.90055077 70.1072309,2.44274462 69.0821714,1.31285846 C68.2835864,0.431944615 66.6881091,0.00409538462 64.2016289,0.00409538462 Z" id="path42"></path>
                            </g>
                        </g>
                    </g>
                    <g id="g44" transform="translate(114.083569, 7.513846)">
                        <g id="g46-Clipped">
                            <mask id="mask-5" fill="white">
                                <use xlink:href="#path-4"></use>
                            </mask>
                            <g id="path48"></g>
                            <g id="g46" mask="url(#mask-5)" fill="url(#radialGradient-6)" fill-rule="nonzero">
                                <path d="M8.12803116,1.38268308 C10.2522875,2.25276615 10.3653555,4.2592 9.88667847,11.3994185 C9.40698584,18.5381815 6.38461756,44.7788 6.38461756,44.7788 C7.9310085,33.3902462 10.4462635,14.5358738 10.9845212,9.04816 C11.3900765,4.90055077 11.1019901,2.44274462 10.0769306,1.31285846 C9.27834561,0.431944615 7.68286827,0.00409538462 5.1963881,0.00409538462 C2.53488952,0.00409538462 0.838192635,0.459292308 0.0111713881,1.39656 C0.0111713881,1.39656 3.70348442,-0.429541538 8.12803116,1.38268308" id="path58"></path>
                            </g>
                        </g>
                    </g>
                    <path d="M91.0312408,65.0648308 C80.3117861,64.9785231 68.3827748,62.9464 61.9836006,57.8698154 C55.3951898,52.6443077 55.0278881,41.2080308 60.4554901,34.9485231 C55.554636,41.8335077 57.579704,51.2999385 63.8079221,56.4435385 C70.3479235,61.8447077 81.2085439,65.1565538 91.0312408,65.0648308" id="path70" fill="url(#radialGradient-7)"></path>
                    <path d="M113.56867,65.0898769 C109.191856,69.2966154 98.153847,77.4362769 88.5461147,82.1263385 C83.2908229,84.6928923 75.2640113,87.1829538 68.2592125,86.6816923 C56.2638499,85.8213231 52.146347,75.5997846 57.2222195,66.1248923 C53.6551615,74.1647077 57.6243895,80.9589846 63.0980312,83.4026769 C71.8645241,87.3166462 80.7007535,84.9233846 89.008204,81.3678462 C92.9388399,79.6853538 97.6298074,76.6033231 101.797751,74.0059692 C106.887841,70.8379692 111.283275,67.1903692 113.56867,65.0898769" id="path80" fill="url(#radialGradient-8)"></path>
                    <path d="M119.482397,118.983108 C119.297899,119.439354 119.106293,119.880031 118.904531,120.300738 C117.579198,123.068338 115.631314,124.631354 112.012462,126.256646 C101.553673,130.951108 89.0214065,123.773015 87.2085949,112.831569 C86.4536799,108.274523 87.455381,102.467877 90.4290014,96.9336923 C80.9316289,120.774585 107.416282,133.556585 119.482397,118.983108" id="path90" fill="url(#radialGradient-9)"></path>
                    <path d="M150.313058,111.702462 C149.525983,125.209108 132.888062,128.006831 124.804717,121.927046 C124.936742,121.636985 125.509191,119.936892 125.611765,119.454246 C131.788188,124.765046 151.382803,125.074738 150.238582,107.130185 C150.375686,108.620769 150.404799,110.145538 150.313058,111.702462" id="path100" fill="url(#radialGradient-10)"></path>
                    <path d="M177.841051,66.0104923 C182.760186,72.4426154 182.105813,81.4920615 175.779084,85.3410462 C168.236704,89.9312615 157.339184,87.5366462 147.294075,82.2265231 C140.775739,78.7816615 133.904659,74.9235385 127.680841,69.7274769 C134.388075,74.6416 141.09497,79.0331385 148.895307,81.9672615 C156.141137,84.6932308 164.627669,86.8908615 172.381627,84.3896308 C175.732367,83.3085846 178.578363,81.3099692 179.789612,77.9392308 C181.445347,73.3270154 179.288931,67.7752308 177.841051,66.0104923" id="path110" fill="url(#radialGradient-11)"></path>
                    <path d="M171.718453,34.1981538 C175.46967,35.4132308 178.622371,38.0308923 180.395237,42.5080615 C186.483305,57.8688 166.730259,63.4598462 154.87437,65.0272615 C152.799877,65.3031077 150.752805,65.4604923 148.813384,65.4757231 C154.514177,65.4043077 171.292248,62.9271077 178.516074,52.5925231 C183.113608,46.0097846 179.145734,36.7877231 171.718453,34.1981538" id="path118" fill="url(#radialGradient-12)"></path>
                    <path d="M37.9715482,83.4158769 L9.1128398,83.4158769 L0,43.7302462 L32.0128652,43.7302462 C32.0128652,43.7302462 32.7934744,47.1842462 33.1576616,48.7939692 C33.4114214,47.5467385 34.1844476,43.7302462 34.1844476,43.7302462 L48.3199773,43.7302462 C48.3199773,43.7302462 51.9709901,49.1584923 54.485568,52.8971385 C56.233721,46.8694769 61.8668088,43.2729846 70.0615297,43.2729846 C71.4904518,43.2729846 74.6455227,43.3873846 78.0416246,44.2013846 C78.0067564,44.0460308 77.9336346,43.7302462 77.9336346,43.7302462 L95.040415,43.7302462 L97.7022521,55.5158154 C97.996432,56.8148308 98.3772748,57.7378154 98.7879079,58.4039077 C98.7117394,57.7574462 98.6596062,57.1082769 98.6596062,56.4560615 L98.6599448,56.3179692 C98.6927819,53.7080923 99.4940751,51.3100923 100.879666,49.3199385 C100.869171,49.2898154 96.5563385,37.7509846 96.5563385,37.7509846 L100.310263,36.0163692 C102.821795,34.8551077 106.722302,34.1903692 111.012115,34.1903692 C116.276208,34.1903692 120.60766,35.2788615 123.887986,37.4311385 C126.129711,38.9325538 127.936091,41.0489538 129.290198,43.7302462 C131.171054,43.7302462 142.944681,43.7302462 142.944681,43.7302462 L145.605503,55.5158154 C145.882079,56.7285231 146.234824,57.6102154 146.612959,58.2668308 C146.586215,57.8887692 146.565565,57.5124 146.565565,57.1363692 C146.565565,48.5848 152.755868,43.2729846 162.723793,43.2729846 C164.743106,43.2729846 169.933401,43.4811385 174.500129,45.4022462 C174.500129,45.4022462 177.451068,46.6444 177.538408,46.6819692 C180.312975,44.4924615 184.191477,43.2729846 188.938979,43.2729846 C190.369255,43.2729846 193.527373,43.3873846 196.927537,44.2034154 C196.890299,44.0460308 196.819208,43.7302462 196.819208,43.7302462 L230.404802,43.7302462 L234.195626,60.2119692 L234.20612,60.2712 C234.471187,61.578 234.736592,63.5150154 234.736592,64.8972923 C234.736592,71.2217846 230.149214,75.4715077 223.322142,75.4715077 C221.915562,75.4715077 220.544867,75.2911077 219.21581,74.9709231 C218.950067,74.9709231 203.476678,74.9709231 203.476678,74.9709231 C203.476678,74.9709231 203.124949,72.8376 203.0305,72.2642462 C200.563316,74.3048308 197.067687,75.4715077 192.967449,75.4715077 C187.392926,75.4715077 182.449756,73.6174154 178.75135,70.2273846 C176.42567,73.5175692 172.078984,75.4715077 166.753279,75.4715077 C163.515608,75.4715077 160.468188,74.8280923 157.736615,73.6103077 C157.888613,74.2439077 158.128967,75.2464308 158.128967,75.2464308 L151.989782,75.4451077 L151.051385,75.4715077 L151.024303,75.4715077 C149.775816,75.4715077 148.546625,75.2789231 147.344177,74.9353846 C146.878364,74.9391077 142.7612,74.9695692 142.7612,74.9695692 L131.920891,74.9709231 C131.920891,74.9709231 131.8498,74.4100923 131.789881,73.9311692 C128.481458,74.9384308 124.938096,75.4715077 121.222425,75.4715077 C116.957324,75.4715077 113.053093,74.6141846 109.683397,72.9949846 C109.683397,72.996 110.224363,75.2464308 110.224363,75.2464308 L104.083823,75.4451077 L103.14678,75.4715077 L103.120375,75.4715077 C101.870195,75.4715077 100.64202,75.2789231 99.4375411,74.9343692 C98.9707125,74.9384308 94.8559178,74.9695692 94.8559178,74.9695692 L84.0173017,74.9709231 C84.0173017,74.9709231 83.7441105,72.8376 83.7170283,72.6291077 C81.2874207,74.4554462 77.9773045,75.4715077 74.0906771,75.4715077 C72.4102295,75.4715077 70.7934249,75.2975385 69.240602,74.9709231 C69.0737082,74.9709231 49.4361006,74.9709231 49.4361006,74.9709231 C49.4361006,74.9709231 47.5345949,71.5209846 46.1628839,69.0316 C45.888,71.1544308 45.3917195,74.9709231 45.3917195,74.9709231 C45.3917195,74.9709231 40.6161204,74.9709231 38.3273399,74.9709231 C38.9011431,77.4014154 40.3188938,83.4158769 40.3188938,83.4158769 L37.9715482,83.4158769" id="path120" fill="#24201F" fill-rule="nonzero"></path>
                    <path d="M201.939089,57.8803077 C201.525071,56.0590462 201.468198,55.8079077 201.073476,54.0699077 C201.062982,54.1616308 200.845647,56.0258769 200.731564,57.0067385 C201.167248,57.2761538 201.568402,57.5696 201.939089,57.8803077 Z M114.109975,57.3648308 C114.109975,60.1212615 116.279593,63.1538769 119.417399,63.3545846 C119.053822,61.7743077 118.687535,60.1872615 118.687535,60.1872615 C118.076156,57.5953231 116.409588,56.0397538 115.150945,56.0397538 C114.639431,56.0397538 114.109975,56.0397538 114.109975,57.3648308 Z M83.0765354,57.8938462 C82.6994164,56.2414769 82.6191856,55.8908308 82.1977195,54.0506154 C82.1868867,54.1467385 81.9681983,56.0258769 81.8541147,57.0067385 C82.2955538,57.2815692 82.7024632,57.5780615 83.0765354,57.8938462 Z M30.6041531,70.7404923 C30.6597054,70.4700615 30.8673239,69.4435077 30.8727404,69.4154154 C30.5487363,69.4154154 24.7296618,69.4154154 21.0854534,69.4154154 C21.2433424,70.0774462 21.2664976,70.1766154 21.4004527,70.7404923 C23.7058887,70.7404923 27.6964101,70.7404923 30.6041531,70.7404923 Z M34.6847904,81.5570462 L10.5927102,81.5570462 L2.33332382,45.5877231 L30.52812,45.5877231 L32.9726567,56.4052923 C32.9726567,56.4052923 22.107263,56.4052923 18.1351237,56.4052923 C18.3896959,57.5212 18.4511724,57.7882462 18.6571999,58.6895692 C21.6035688,58.6895692 31.8252197,58.6895692 31.8252197,58.6895692 C31.8252197,58.6895692 32.4437084,61.2686462 32.4873445,61.4527692 C33.8071932,54.9424615 35.7040949,45.5877231 35.7040949,45.5877231 L47.3301246,45.5877231 C47.3301246,45.5877231 51.9625269,52.4767692 55.8163173,58.2065846 C55.7899122,57.8498462 55.7601218,57.4931077 55.7601218,57.1363692 C55.7601218,49.6198154 61.1064773,45.1304615 70.0615297,45.1304615 C71.8872054,45.1304615 76.4468244,45.3247385 80.5673739,46.9117846 C80.4207918,46.2690462 80.2643924,45.5877231 80.2643924,45.5877231 L93.5549589,45.5877231 L95.8894405,55.9243385 C97.1758428,61.6013538 100.258807,61.9530154 101.561797,61.9743385 C100.885759,60.2163692 100.518119,58.3565231 100.518119,56.4560615 C100.518119,56.4181538 100.518119,56.3277846 100.518119,56.3277846 C100.570929,52.2073538 102.742918,48.8565846 106.123109,47.1013231 C105.741251,47.2069231 105.419989,47.3145538 105.203331,47.4204923 L102.626126,48.6839692 L98.8999603,38.7139077 L101.089552,37.7029231 C103.366484,36.6503077 106.982967,36.0475077 111.012115,36.0475077 C115.907552,36.0475077 119.897092,37.0354769 122.86902,38.9833231 C125.55083,40.7815692 127.181853,43.34 128.231286,45.8615385 C128.221807,45.8185538 128.168659,45.5877231 128.168659,45.5877231 L141.459902,45.5877231 L143.793368,55.9243385 C145.014096,61.3018154 147.841473,61.8992 149.242975,61.9662154 C148.710472,60.3910154 148.423062,58.7586154 148.423062,57.1363692 C148.423062,49.6198154 153.769418,45.1304615 162.723793,45.1304615 C164.630038,45.1304615 169.523783,45.3247385 173.778728,47.1162154 L175.579014,47.8733538 C175.579014,47.8733538 174.631139,56.0258769 174.518071,57.0067385 C174.55734,57.0328 174.600333,57.0551385 174.639263,57.0812 C174.666007,49.5981538 180.006608,45.1304615 188.938979,45.1304615 C190.766347,45.1304615 195.32732,45.3247385 199.447531,46.9138154 C199.301626,46.2690462 199.146242,45.5877231 199.146242,45.5877231 L212.439856,45.5877231 L215.098646,57.5286462 C216.00319,61.3742462 218.097656,63.1173231 219.29401,63.1173231 C219.338357,63.1173231 219.353591,63.1132615 219.391167,63.1108923 C219.392521,63.0787385 219.395568,63.0655385 219.395568,63.0245846 C219.395568,62.4458154 219.319061,61.7631385 219.177895,61.1034769 L215.647737,45.5877231 L228.926793,45.5877231 L232.379091,60.6056 L232.384846,60.6387692 C232.622153,61.8159385 232.877741,63.6510769 232.877741,64.8972923 C232.877741,70.1928615 229.12754,73.6153846 223.322142,73.6153846 C221.132888,73.6153846 219.045193,73.1736923 217.141994,72.3407385 C217.181941,72.6382462 217.244568,73.1124308 217.244568,73.1124308 L205.053537,73.1124308 L204.695375,70.9344308 C204.563688,70.1380308 204.390363,69.1233231 204.162534,67.9322769 C202.523387,71.4346769 198.434659,73.6153846 192.967449,73.6153846 C186.444374,73.6153846 181.417249,70.9022769 178.291969,67.0749538 C176.951064,71.0765846 172.652788,73.6153846 166.753279,73.6153846 C161.931302,73.6153846 157.936007,72.1224308 154.910592,69.8056615 C154.931919,69.8919692 155.790424,73.4637538 155.790424,73.4637538 L151.930201,73.5883077 L151.024303,73.6153846 C149.08996,73.6153846 147.23551,73.1239385 145.535766,72.2429231 C145.572327,72.5956 145.622091,73.0904308 145.622091,73.0904308 L142.74732,73.1124308 L133.558007,73.1124308 C133.558007,73.1124308 133.433091,72.1322462 133.349813,71.4901846 C132.714737,71.7020615 132.035652,71.9291692 132.035652,71.9291692 C128.686266,73.0477846 125.048118,73.6153846 121.222425,73.6153846 C115.572072,73.6153846 110.54664,72.0114154 106.83063,69.0684923 C106.929142,69.4824308 107.884465,73.4637538 107.884465,73.4637538 L104.023565,73.5883077 L103.120375,73.6153846 C101.184678,73.6153846 99.329551,73.1239385 97.6325156,72.2429231 C97.6677224,72.5956 97.7171473,73.0904308 97.7171473,73.0904308 L94.8406841,73.1124308 L85.6534023,73.1124308 L85.1320708,69.0329538 C85.1083739,68.8336 85.0772295,68.5993846 85.0508244,68.3871692 C83.2799901,71.6201538 79.3155014,73.6153846 74.0906771,73.6153846 C70.4647153,73.6153846 67.304228,72.7743077 64.6711657,71.3747692 C65.2439533,72.2256615 65.8400992,73.1124308 65.8400992,73.1124308 L50.5325892,73.1124308 C50.5325892,73.1124308 46.0789292,65.0286154 45.0521771,63.1647077 C44.7163584,65.7464923 43.7586657,73.1124308 43.7586657,73.1124308 C43.7586657,73.1124308 38.3984306,73.1124308 35.9793173,73.1124308 C36.1313159,73.7541538 37.9715482,81.5570462 37.9715482,81.5570462 L34.6847904,81.5570462 Z" id="path122" fill="#FFFFFF" fill-rule="nonzero"></path>
                    <path d="M214.469324,68.1400923 C214.613537,69.2218154 214.855245,71.0217538 214.855245,71.0217538 L206.828433,71.0217538 L206.758358,70.5949538 C206.489907,68.9683077 206.049822,66.4488 205.329436,63.3698154 L201.764409,47.6794154 L210.762116,47.6794154 L213.058683,57.9835385 C214.225246,62.9447077 217.10848,65.2066462 219.29401,65.2066462 C220.830922,65.2066462 221.487664,64.5554462 221.487664,63.0245846 C221.487664,62.2935077 221.395924,61.4788308 221.222598,60.6658462 L218.266581,47.6794154 L227.261918,47.6794154 L230.332695,61.0388308 C230.55917,62.1655692 230.787676,63.8429846 230.787676,64.8972923 C230.787676,69.0468308 227.996183,71.5240308 223.322142,71.5240308 C219.899296,71.5240308 216.866772,70.3580308 214.469324,68.1400923 Z M191.97455,65.7089231 C193.418705,65.7089231 194.389262,65.1636615 194.389262,64.3486462 L194.389262,64.3032923 C194.389262,63.9560308 194.27247,63.6801846 194.026361,63.4344615 C192.887895,62.3046769 189.271751,62.1232615 186.352295,62.1192 C187.123459,63.9506154 189.074051,65.7089231 191.97455,65.7089231 Z M176.727636,57.1363692 C176.727636,50.8359077 181.177572,47.2221538 188.938979,47.2221538 C190.718276,47.2221538 195.278911,47.3988308 199.182126,49.0420615 L199.535548,49.1906462 L198.86188,54.9844308 L198.241021,54.7339692 C195.939715,53.8069231 193.528727,53.3564308 190.87129,53.3564308 C188.708103,53.3564308 186.998881,53.9 186.052698,54.8872923 C185.734483,55.2562154 185.521888,55.8123077 185.426085,56.2986769 C193.373343,56.1896923 198.485438,57.3452 201.024728,59.8312 C202.243425,61.0249538 202.862252,62.5287385 202.862252,64.3032923 C202.862252,68.6220615 198.885238,71.5240308 192.967449,71.5240308 C182.803856,71.5240308 176.727636,64.2092 176.727636,57.1363692 Z M165.76038,65.7089231 C167.204535,65.7089231 168.174415,65.1636615 168.174415,64.3486462 L168.174415,64.3032923 C168.174415,63.9560308 168.058977,63.6801846 167.811176,63.4344615 C166.674741,62.3046769 163.058258,62.1232615 160.138125,62.1192 C160.907935,63.9506154 162.858527,65.7089231 165.76038,65.7089231 Z M150.513127,57.1363692 C150.513127,50.8359077 154.964756,47.2221538 162.723793,47.2221538 C164.503091,47.2221538 169.064064,47.3988308 172.967279,49.0420615 L173.321378,49.1906462 L172.648387,54.9844308 L172.027528,54.7339692 C169.725884,53.8069231 167.31388,53.3564308 164.656105,53.3564308 C162.495288,53.3564308 160.78268,53.9 159.837174,54.8872923 C159.521667,55.2562154 159.306703,55.8123077 159.210899,56.2986769 C167.158834,56.1896923 172.270929,57.3452 174.810558,59.8312 C176.028578,61.0249538 176.647067,62.5287385 176.647067,64.3032923 C176.647067,68.6220615 172.672084,71.5240308 166.753279,71.5240308 C156.58867,71.5240308 150.513127,64.2092 150.513127,57.1363692 Z M142.938926,67.4858462 C143.015772,68.1715692 143.093295,68.8691385 143.093295,68.8691385 L143.311306,71.0176923 L142.74732,71.0217538 L135.397562,71.0217538 L135.11083,68.7818154 C134.869122,66.7957231 134.539397,64.0748308 133.969994,61.5864615 L130.791227,47.6794154 L139.788595,47.6794154 L141.755436,56.3846462 C142.548605,59.8884 144.57198,64.0660308 149.700324,64.0660308 C150.185433,64.0660308 150.603853,64.0660308 150.899048,64.0250769 L151.358429,63.9617846 L153.158038,71.4590462 L151.836429,71.5003385 L151.024303,71.5240308 C147.89733,71.5240308 145.076724,70.0991077 142.938926,67.4858462 Z M112.019232,57.3648308 C112.019232,61.2036615 115.187844,65.4804615 119.732229,65.4804615 C120.590734,65.4804615 121.426218,65.3664 121.996636,65.2272923 C121.813154,64.4295385 120.724113,59.7161231 120.724113,59.7161231 C119.9367,56.3748308 117.593078,53.9494154 115.150945,53.9494154 C113.160745,53.9494154 112.019232,55.1932615 112.019232,57.3648308 Z M106.744306,66.1986769 C104.04997,63.4859077 102.581102,59.9909538 102.608861,56.3555385 C102.672166,51.3534154 106.445725,47.8601538 111.784972,47.8601538 C114.57511,47.8601538 116.827669,48.6518154 118.774875,50.3011385 C118.744746,50.1694769 118.682119,49.9010769 118.682119,49.9010769 C117.690912,46.0757846 115.3588,44.3628308 111.122813,44.3628308 C108.720626,44.3628308 105.588575,44.9040308 104.283554,45.5433846 L103.776779,45.7924923 L101.537085,39.7983385 L101.967353,39.6 C103.948751,38.6837846 107.329619,38.1381846 111.012115,38.1381846 C115.429891,38.1381846 119.133714,39.0351077 121.722429,40.7321538 C125.501067,43.2631692 126.901891,47.7772308 127.626339,50.9499692 L131.809854,69.8005846 L131.373154,69.9461231 C128.238057,70.994 124.822997,71.5240308 121.222425,71.5240308 C115.29448,71.5240308 110.153949,69.6333846 106.744306,66.1986769 Z M95.0346601,67.4858462 C95.1115057,68.1715692 95.1890283,68.8681231 95.1890283,68.8681231 L95.4070397,71.0176923 L94.8406841,71.0217538 L87.493296,71.0217538 L87.2065637,68.7818154 C86.9662096,66.7950462 86.6347918,64.0748308 86.0647125,61.5864615 L82.8869603,47.6794154 L91.8836516,47.6794154 L93.8501544,56.3846462 C94.6446771,59.8884 96.6680524,64.0660308 101.79572,64.0660308 C102.280829,64.0660308 102.698571,64.0660308 102.995459,64.0250769 L103.454163,63.9617846 L105.253772,71.4590462 L103.932163,71.5003385 L103.120375,71.5240308 C99.9920482,71.5240308 97.172119,70.0991077 95.0346601,67.4858462 Z M73.0981161,65.7089231 C74.5419334,65.7089231 75.5114745,65.1636615 75.5114745,64.3486462 L75.5114745,64.3032923 C75.5114745,63.9560308 75.3960368,63.6801846 75.1489122,63.4344615 C74.0107847,62.3046769 70.3946402,62.1232615 67.4751841,62.1192 C68.2460099,63.9506154 70.1952479,65.7089231 73.0981161,65.7089231 Z M57.8498484,57.1363692 C57.8498484,50.8359077 62.3018159,47.2221538 70.0615297,47.2221538 C71.8415042,47.2221538 76.4007847,47.3988308 80.3050156,49.0420615 L80.6591147,49.1906462 L79.9844306,54.9844308 L79.3635722,54.7339692 C77.0619278,53.8069231 74.6519547,53.3564308 71.9928258,53.3564308 C69.8303159,53.3564308 68.1200779,53.9 67.1749108,54.8872923 C66.8573725,55.2562154 66.6441006,55.8123077 66.548636,56.2986769 C74.4962323,56.1896923 79.6076501,57.3452 82.1482946,59.8312 C83.366653,61.0249538 83.9844646,62.5287385 83.9844646,64.3032923 C83.9844646,68.6220615 80.008466,71.5240308 74.0906771,71.5240308 C63.9250524,71.5240308 57.8498484,64.2092 57.8498484,57.1363692 Z M60.9565099,71.0217538 L51.768551,71.0217538 L46.2143399,60.9430462 C45.1994363,59.0788 44.447568,57.6224 43.787779,56.2357231 C43.7471558,56.5765538 43.6967153,57.0003077 43.6967153,57.0003077 L43.2508754,60.7931077 L41.9224958,71.0217538 L32.680948,71.0217538 L37.4129788,47.6794154 L46.2163711,47.6794154 L61.9155567,71.0217538 L60.9565099,71.0217538 Z M34.6847904,79.4677231 L12.2575856,79.4677231 L4.95782819,47.6794154 L28.8573204,47.6794154 L30.3578071,54.3136 C30.3578071,54.3136 16.6871425,54.3136 15.5127249,54.3136 C15.7392671,55.3032615 16.8417139,60.1300615 16.9894132,60.7799077 C17.7556011,60.7799077 30.1762212,60.7799077 30.1762212,60.7799077 L31.7453612,67.3254154 C31.7453612,67.3254154 19.6132676,67.3254154 18.4431154,67.3254154 C18.67003,68.2836 19.5983385,72.2073846 19.7456316,72.8304923 C20.5086374,72.8304923 33.7650127,72.8304923 33.7650127,72.8304923 L35.3310382,79.4677231 L34.6847904,79.4677231 Z" id="path124" fill="#24201F" fill-rule="nonzero"></path>
                    <path d="M143.077045,14.7196246 C143.020173,14.2350831 143.018819,13.60656 142.947728,13.06052 C142.841769,12.2475354 142.624096,11.3276308 142.426397,10.4710185 C142.765262,10.4337538 143.154907,10.7458831 143.15186,10.1288677 C143.151183,10.01 142.93114,9.64310769 142.760184,9.38926154 C142.66235,9.21024923 142.394914,9.03797231 142.224296,8.87815077 C141.956521,8.63422154 141.904727,7.95120615 141.830589,7.63812923 C141.805538,7.46307692 141.682653,7.13135077 141.657602,6.95643385 C141.633228,6.89960615 141.486984,6.77227692 141.438237,6.63516615 C141.339048,6.21791077 141.190435,4.94800308 141.160306,4.34855385 C141.136609,3.86692308 141.059086,3.36200615 141.104788,2.88234523 C141.080414,2.80142923 140.982579,2.64542215 140.885761,2.53647815 C140.885084,2.41801662 140.879329,1.32674215 140.491715,1.17509785 C140.128137,1.03296769 139.79198,1.63440031 139.792996,1.77692308 C139.65183,2.54996246 139.535377,3.40391785 139.539439,4.30560308 C139.548579,6.08557231 139.650476,7.19163077 139.652169,7.57135077 C138.683982,7.28233846 136.712739,6.56892923 135.78416,5.70808615 C135.533989,5.47661231 135.309545,4.72086154 135.296343,4.41347077 C135.267229,3.72916923 134.951722,2.70398954 134.947999,1.96823169 C134.947322,1.85003754 134.907375,1.51831815 134.94529,1.42259785 C134.961201,1.38200615 135.040755,1.27398954 135.088826,1.24688554 C135.135204,0.958533231 135.086118,0.725048923 135.350169,0.623510462 C135.349492,0.537835692 135.349492,0.495132 135.348814,0.409856615 C135.107445,0.260588985 134.794646,0.127319754 134.626059,0.0551322031 C134.505544,0.00370192308 134.289564,0.0531490554 134.218135,0.117139508 C133.858958,0.388966769 133.362,1.00586708 133.288201,1.53828062 C133.247239,1.83615385 133.244193,2.27681385 133.245885,2.70359354 C133.248255,3.20216431 133.348459,4.02742154 133.351167,4.57332615 C132.701873,4.24292 131.504164,4.18436615 131.412424,5.06714154 C131.412424,5.06714154 131.484868,5.19406462 131.485207,5.24138154 C131.653116,5.26916923 131.964899,5.40824308 132.108773,5.47197538 C132.252986,5.53584308 133.104042,5.90747385 133.503504,6.20230769 C133.573241,6.25412615 133.672091,6.36981231 133.696465,6.42812923 C134.287194,9.38384615 135.020443,11.9240338 135.804133,14.7404062 C135.828507,14.7975046 135.781113,14.8959969 135.781452,14.9674123 C135.853897,14.9979415 135.878271,15.0791385 136.022822,15.1396892 C136.167373,15.2003754 136.48051,15.2361846 136.625061,15.1776308 C137.249982,14.8923077 137.417214,14.5098123 137.414844,14.0353231 C137.414167,13.9165908 137.138945,11.9324954 136.965619,10.93708 C136.89182,10.6226831 136.688704,10.1325569 136.671101,9.79673538 C136.625061,8.92824308 136.472385,8.60128923 136.300075,7.77178769 C136.319033,7.76095692 136.328511,7.75513538 136.347807,7.74403385 C136.781799,7.87742154 137.74897,8.46431385 137.89386,8.52313846 C138.014714,8.57221538 139.224609,9.10806769 139.903017,9.42351385 C140.203629,11.5790738 140.991042,14.3751046 141.704657,16.4963108 C141.704657,16.5203754 142.00053,17.58108 142.267289,17.6826185 C142.38882,17.72892 142.849894,17.6416308 142.945358,17.5604677 C143.077722,17.4476923 143.402031,16.6892 143.401354,16.5230154 C143.401016,16.4045538 143.144074,15.2859046 143.077045,14.7196246" id="path126" fill="#FFFFFF" fill-rule="nonzero"></path>
                    <path d="M147.710802,12.7704585 C146.900707,11.5415385 145.079771,7.02652923 145.071984,5.48375385 C145.070969,5.31794154 145.094327,5.08907385 145.166433,4.94972923 C145.224999,4.97101846 145.254112,4.98147692 145.312339,5.00249538 C146.068946,5.56055077 148.304578,9.61163077 148.31101,10.9171108 C148.315072,11.77132 148.218254,11.9284 147.710802,12.7704585 Z M148.951841,7.41667385 C148.140054,5.88486462 146.889874,4.33667385 145.915593,3.98775385 C145.744637,3.92683077 145.671854,3.90009231 145.501575,3.83889846 C144.162024,3.355792 143.541843,5.39477231 143.54489,6.05913846 C143.553691,7.86276615 145.150184,11.6031385 146.128865,12.8530769 C146.251412,12.9915077 147.228401,13.6688369 147.448105,13.7449908 C147.619061,13.8048646 148.153595,13.70424 148.226717,13.6599692 C148.318119,13.6051046 148.054407,13.2924 148.00532,13.1570154 C148.466055,12.7951662 149.41867,12.8740954 149.7335,12.5610185 C150.170538,12.1267046 150.265664,11.6258831 150.262618,11.0084615 C150.257878,10.0594492 149.494161,8.50120615 148.951841,7.41667385 Z" id="path128" fill="#FFFFFF" fill-rule="nonzero"></path>
                    <path d="M158.65233,9.77612308 C158.46614,9.43898154 158.427887,8.97742154 158.303309,8.63422154 C157.883197,8.01652923 157.390302,7.59040615 156.776552,7.40993846 C155.721025,7.09923077 154.821221,8.31596615 154.629615,9.20510462 C154.582221,9.49861846 154.560217,10.0134523 154.560894,10.2035662 C154.564618,10.9151138 154.987438,12.2770154 155.334428,13.0930462 C155.334428,13.0930462 155.408227,13.1627015 155.236255,13.1103754 C155.015874,13.0435969 154.07917,11.8109877 153.075099,11.4935446 C151.800884,11.0913508 151.684431,12.1863415 151.390928,12.0908615 C151.219633,12.0350831 151.267027,11.9774431 151.097425,11.9240338 C150.108249,11.6116 149.875681,11.7567662 149.313727,11.6383046 C149.828288,12.0015077 150.683068,12.1433569 151.102841,13.1103754 C151.151928,13.19736 151.077113,13.5336892 151.15599,14.0279108 C151.298848,14.9244277 152.118422,15.9046462 152.681731,16.0843354 C153.195615,16.24788 153.487086,15.8410492 153.486071,15.5796892 C153.485394,15.4375354 153.458989,15.0504369 153.409225,14.8449908 C153.03583,13.5668923 152.792091,13.70292 152.29818,12.62052 C152.29818,12.62052 152.224381,12.5731692 152.395676,12.6283046 C152.934272,12.8003108 154.903483,15.1435138 155.615067,15.3576923 C155.7867,15.4091385 156.521642,15.3922154 157.060238,15.2893231 C157.109324,15.2561538 157.280958,15.1641262 157.304993,15.0997508 C157.401812,14.9387108 157.400796,14.7013815 157.39978,14.5349262 C157.396734,13.8945231 156.687181,12.4601569 156.454952,11.7459354 C156.268424,11.1720062 156.00505,10.0008615 156.00268,9.52637231 C156.00031,9.05147692 155.992186,8.49128923 156.266392,8.32510462 C156.651636,8.0916 158.557204,10.3196246 159.395058,11.0273815 C159.246445,10.7255415 158.904871,10.2334523 158.65233,9.77612308" id="path130" fill="#FFFFFF" fill-rule="nonzero"></path>
                    <path d="M166.338245,17.8518492 C166.214344,17.7276 166.139191,17.3066215 165.866677,17.0747077 C165.421514,16.6824646 163.621905,15.9242092 163.448918,15.8803108 C163.276946,15.8363108 162.439769,15.6193231 162.144235,15.4700615 C161.7248,15.1942831 161.393044,12.6875354 161.388305,11.7144585 C161.382888,10.5519446 161.842946,9.25428308 162.627313,8.79458462 C162.381204,8.6592 161.839561,8.56412615 161.692302,8.52513538 C161.544365,8.48560308 160.741041,8.97664308 160.540972,9.30532308 C160.276582,9.74055077 160.103933,10.3234831 159.959044,10.8284 C159.549765,12.5406769 159.751527,13.5912277 159.80603,14.6252277 C159.707857,14.7166123 159.413,14.6347723 159.339878,14.7325877 C158.997627,14.9925262 158.802975,15.4119138 158.460724,15.66972 C158.461401,15.7933262 158.461739,15.8549262 158.462416,15.97816 C158.880159,16.1446154 159.666895,16.4123385 160.134739,16.6119969 C160.134739,16.6119969 160.208877,16.6796892 160.258302,16.7646769 C160.759322,18.8215077 161.333125,20.6654462 162.872745,23.69576 C163.487848,23.8313815 164.147976,22.8600308 164.144929,22.2904677 C164.144252,22.1482123 163.921163,21.8073815 163.797262,21.5623692 C163.772211,21.5088246 163.82062,21.3315385 163.746144,21.1937846 C163.372072,20.1269538 162.799285,18.7704677 162.547421,17.5197508 C165.698429,18.2708308 167.377523,18.7375354 167.648683,18.8720062 C167.327082,18.5839077 166.660184,18.2135969 166.338245,17.8518492" id="path132" fill="#FFFFFF" fill-rule="nonzero"></path>
                    <path d="M169.50618,20.7626185 C169.061694,20.6643969 168.554581,20.8377231 168.104001,21.3000615 C167.736361,21.6771415 168.010568,22.2981508 167.66764,22.7402492 C167.727221,22.8109877 167.757011,22.8461538 167.816592,22.9166215 C168.284436,22.9537846 169.119582,22.4308615 169.341317,22.3614769 C169.488915,22.3469231 169.83489,22.4471415 169.982149,22.3608 C170.15412,22.1851046 170.395829,21.8320892 170.398198,21.6927446 C170.407,21.0928892 170.024126,20.8773908 169.50618,20.7626185 Z M169.046122,17.4835354 C168.721136,16.5338462 168.49737,15.9604585 168.269203,14.7714769 C168.09283,13.8545846 167.826071,12.1429846 167.836565,11.9936892 C167.846044,11.8624 167.981455,11.3161231 168.127698,10.9702492 C168.250245,10.9268923 168.398181,10.93708 168.522082,10.9888985 C168.521744,10.9173815 168.569814,10.7394185 168.545102,10.6622154 C168.445914,10.5925262 168.222486,10.2571108 168.049837,10.2178492 C167.87685,10.1779108 167.48382,10.3474123 167.336899,10.4790738 C166.674402,11.0358431 166.266477,12.4811754 166.242103,13.3015385 C166.186924,15.1498431 166.901554,17.1827446 167.847059,19.2020062 C167.945909,19.2250215 167.995334,19.2365292 168.094184,19.2588677 C168.905295,18.9000308 169.050523,18.3615385 169.048153,17.9107077 C169.047476,17.7681815 169.096224,17.6132338 169.046122,17.4835354 Z" id="path134" fill="#FFFFFF" fill-rule="nonzero"></path>
                    <path d="M177.145717,14.4401569 C177.070902,14.33212 176.873203,14.1273169 176.748286,13.9659046 C176.578346,13.7452277 176.179561,13.5781292 175.930744,13.2950738 C174.93886,12.1635969 174.692074,12.2327446 174.370812,12.0516 C174.173112,11.9422769 173.895181,11.8207692 173.604048,11.7124954 C173.481501,11.6664646 173.281093,11.6237846 173.184275,11.5574123 C173.13722,11.5252923 173.134173,11.4291692 172.961524,11.3940031 C172.788537,11.35948 172.492664,11.3705815 172.121977,11.2230462 C171.851156,11.3093877 171.530232,11.2659969 171.284462,11.3564338 C171.111813,11.4150215 170.742819,11.5733877 170.596237,11.7313815 C170.105373,12.2898431 169.693047,13.5736277 169.696771,14.4279723 C169.702187,15.4720585 171.56747,18.8607692 172.137211,19.3339385 C172.483863,19.6188554 173.005871,20.4363415 173.499443,20.5344277 C173.647718,20.5639077 174.521118,20.6248646 175.028908,20.6184 C175.344415,20.6143046 176.284843,20.0703631 176.480511,19.6791692 C176.529598,19.5932338 176.577669,19.3413508 176.576992,19.1748954 C176.576314,19.0323692 176.451737,18.8438462 176.327159,18.6316308 C176.128105,18.2634523 175.234732,17.2199077 174.865399,17.3394185 C174.785846,17.2480677 174.745899,17.2027138 174.666684,17.1116 C174.469661,17.1779723 174.371489,17.2111754 174.174466,17.2771415 C174.62166,17.9093877 175.020445,18.8624954 174.875555,19.4036277 C173.141959,18.1009569 171.203215,14.9664646 171.195429,13.32892 C171.194414,13.1867662 171.193398,12.9492 171.242484,12.8645846 C171.389067,12.6113815 172.746221,12.7968923 172.968633,12.8415692 C174.721187,13.1945846 176.627771,14.5193231 178.089191,15.6250092 C177.815661,15.2459662 177.467994,14.7819015 177.145717,14.4401569" id="path136" fill="#FFFFFF" fill-rule="nonzero"></path>
                    <path d="M188.847238,16.0853846 C188.080136,15.4544585 187.732469,14.8933569 186.741939,14.0830462 C186.394949,13.8031385 186.370575,13.8000923 186.12345,13.6497815 C185.826224,13.4700923 185.332313,13.2873908 185.159326,13.2643754 C184.764603,13.2119138 184.54253,13.1583692 184.124449,13.4562154 C184.05065,13.46972 183.976174,13.4596677 183.902037,13.4490738 C182.25578,14.6896369 182.558762,16.1504369 182.98903,18.3704062 C182.442986,17.6751046 181.694164,15.9736585 181.09768,15.1224954 C181.048593,15.0432954 181.096326,14.8374431 180.972425,14.6996892 C180.401669,14.0654462 179.927731,13.0412277 179.161983,12.9140338 C177.804152,12.6879415 177.319042,14.4472985 177.322766,15.2064338 C177.323443,15.34896 177.575646,16.4607385 177.85053,17.1484923 C178.350534,18.5158431 179.048915,19.9620892 179.523868,21.24892 C179.992051,21.1840031 180.604785,20.2619323 180.602415,19.7874431 C180.601738,19.6212585 179.625088,16.7612585 179.124068,15.2077538 C179.123729,15.1316 179.123391,15.0936585 179.123052,15.0179108 C179.152843,15.02292 179.167738,15.0253231 179.19719,15.0300615 C179.643368,15.4362154 180.480884,16.4719754 181.008986,17.1478492 C181.582789,17.8816 182.176904,18.8455723 182.89695,19.7563723 C183.616659,20.6674431 183.795401,21.7840954 184.683695,21.9042831 C184.708408,21.9079723 185.324865,21.8476923 185.398326,21.7150831 C185.568943,21.3582431 185.68912,20.7331385 185.688782,20.56736 C185.688105,20.4244277 185.237525,18.5761231 185.057768,17.7566738 C184.865823,16.8794492 184.751739,15.6761846 184.697237,14.5779108 C184.795409,14.4726831 184.918972,14.5128585 185.066908,14.5328277 C185.83164,14.6340954 187.910534,16.0042215 188.181694,16.1528062 C188.402752,16.2732646 188.997882,16.6952923 189.219279,16.6245538 C189.144803,16.4980031 188.675605,16.3036585 188.847238,16.0853846" id="path138" fill="#FFFFFF" fill-rule="nonzero"></path>
                    <path d="M190.176633,20.9249785 C191.14245,21.9742092 193.107938,26.06868 192.84321,27.4208 C192.322217,26.5204585 190.428159,21.9709262 190.176633,20.9249785 Z M195.204773,17.1769231 C195.031448,16.9265292 194.601518,16.60868 194.289735,16.2279108 C193.967119,15.8332646 193.446803,14.8307077 192.804618,14.4418492 C192.533119,14.2756646 191.571025,13.9719969 191.423428,13.9578492 C191.250779,13.9412985 190.684762,13.9804585 190.339803,14.01576 C188.321167,14.2590123 187.997874,16.3551046 188.016154,17.6273815 C188.020555,17.9327754 188.069642,18.4164031 188.09537,18.7040954 C188.095708,18.7754769 187.947772,18.7345231 187.948788,18.9004369 C187.949465,19.0428277 188.29984,20.1269538 188.475197,20.7635662 C188.52496,20.8878492 188.452177,21.0455723 188.477228,21.16708 C188.602483,21.5606769 188.67899,21.9963108 188.803907,22.4135662 C188.85367,22.5374431 189.076759,22.7520277 189.151574,22.9264031 C189.176963,23.0479108 189.152928,23.1873908 189.153605,23.3061231 C189.15462,23.4959662 189.377371,23.8050831 189.452863,24.0264031 C190.052055,25.7280862 191.021596,27.3967354 192.40888,29.1845231 C192.581528,29.2237846 192.926487,29.3259662 193.099136,29.3409262 C193.271446,29.3561231 193.46813,29.2782431 193.787023,29.1388985 C193.834416,28.6924 193.86116,28.6196985 193.833062,28.4311754 C193.765695,27.9803108 193.673955,27.2745846 193.627576,26.6822769 C193.597786,26.3038769 193.241317,24.93656 192.999271,24.0186185 C192.841517,23.4202185 192.30089,22.1063108 191.902782,21.3096062 C191.355722,20.2143446 190.362484,18.6692 189.493486,17.2476615 C189.344195,17.01788 189.381772,16.5284308 189.365861,16.3798123 C189.354351,16.2688985 189.455909,15.9482738 189.486038,15.7759969 C189.527339,15.5418492 190.123146,15.0845538 190.369255,15.0392 C190.468105,15.0253231 190.591329,15.0381508 190.763639,15.0550738 C192.513823,15.2311754 194.467462,17.1745538 196.071064,18.3548031 C195.872687,17.9848646 195.526035,17.5566431 195.204773,17.1769231 Z" id="path140" fill="#FFFFFF" fill-rule="nonzero"></path>
                    <path d="M202.033877,22.7747723 C201.910314,22.6756031 201.8355,22.26972 201.564678,22.0930769 C201.121547,21.7912369 199.329047,21.3999077 199.157075,21.3903631 C198.985442,21.3816308 198.149958,21.3352277 197.855101,21.2462462 C197.436681,21.0550831 197.104925,18.6136585 197.100186,17.6409877 C197.094769,16.4780677 197.554489,15.0851969 198.337501,14.4655415 C198.091392,14.3802492 197.551103,14.3950738 197.403844,14.3859354 C197.255908,14.3772031 196.453938,15.0311446 196.253868,15.4017262 C195.986093,15.8961846 195.816492,16.5097815 195.671602,17.0449908 C195.262323,18.84212 195.464085,19.8527662 195.518249,20.8769846 C195.420415,20.9887108 195.125558,20.9663723 195.052098,21.0794185 C194.70917,21.4090123 194.514517,21.8683046 194.171589,22.1963415 C194.172266,22.3195415 194.172605,22.3814462 194.173282,22.5046462 C194.591701,22.5862154 195.379453,22.6942523 195.847297,22.7984308 C195.847297,22.7984308 195.921435,22.8515692 195.971198,22.9259969 C196.47188,24.8833877 197.04636,26.6119446 198.581918,29.3311446 C199.196006,29.3415692 199.853425,28.2351046 199.850717,27.6651354 C199.85004,27.5230154 199.627289,27.2272338 199.503727,27.0075046 C199.479014,26.9588677 199.527085,26.7716308 199.452948,26.6490738 C199.079891,25.6573815 198.509135,24.4163108 198.257609,23.2154154 C201.402186,23.3254154 203.066045,23.4492923 203.335851,23.5284923 C203.01662,23.3054462 202.353785,23.0709262 202.033877,22.7747723" id="path142" fill="#FFFFFF" fill-rule="nonzero"></path>
                    <path d="M212.40905,17.1081815 C211.652442,16.5819754 211.309514,16.0681908 210.331171,15.3932646 C209.989259,15.1604369 209.964547,15.1604369 209.720807,15.0439385 C209.427305,14.9044585 208.939149,14.7887723 208.768193,14.78972 C208.377871,14.7914462 208.158506,14.76816 207.745164,15.1231385 C207.671704,15.1468308 207.598582,15.14656 207.525122,15.1461538 C205.896469,16.6123692 206.196065,18.0322154 206.621932,20.1953231 C206.081305,19.5739077 205.339931,17.9736277 204.748524,17.2027138 C204.699776,17.1302492 204.74717,16.9176615 204.624623,16.7968308 C204.058945,16.2396892 203.589069,15.2795415 202.829415,15.2557477 C201.482416,15.2145231 201.000354,17.0404892 201.004078,17.7996246 C201.004755,17.9421508 201.254926,19.0202185 201.528456,19.6717569 C202.024398,20.9720585 202.717701,22.3239077 203.189269,23.5474123 C203.65339,23.4184923 204.260707,22.4128892 204.258337,21.9381292 C204.25766,21.7719446 203.289473,19.0432338 202.791839,17.5563723 C202.7915,17.4804892 202.7915,17.4422769 202.790823,17.3667662 C202.820275,17.3674431 202.83517,17.3678492 202.864622,17.3688985 C203.307076,17.7147723 204.138837,18.6384 204.661184,19.2415385 C205.228555,19.8965292 205.818269,20.7812677 206.530868,21.5948954 C207.243467,22.4081508 207.420178,23.5013815 208.298317,23.5004677 C208.322691,23.5004677 208.932378,23.3562154 209.004823,23.2134523 C209.173409,22.83292 209.292232,22.1909262 209.291555,22.0249785 C209.290878,21.8822154 208.845038,20.0911446 208.667989,19.2990431 C208.477737,18.4458831 208.365684,17.2588985 208.31152,16.1676308 C208.408339,16.0484923 208.530547,16.0719138 208.67679,16.0715077 C209.433059,16.0688677 211.48521,17.1552277 211.753323,17.2665477 C211.970996,17.3569846 212.557663,17.6978492 212.776013,17.5969538 C212.702552,17.4802185 212.239786,17.3502492 212.40905,17.1081815" id="path144" fill="#FFFFFF" fill-rule="nonzero"></path>
                    <path d="M218.710051,16.4685231 C218.529278,16.1988369 218.489331,15.7466523 218.367123,15.4459969 C217.953443,14.9728277 217.468334,14.7169846 216.863048,14.7491385 C215.822416,14.80424 214.931752,16.3357785 214.742177,17.2927446 C214.69546,17.6030462 214.673795,18.1263415 214.67481,18.3157785 C214.678195,19.0280031 215.096953,20.2451446 215.439542,20.9423077 C215.439542,20.9423077 215.512664,20.9866123 215.342724,20.9937538 C215.124712,21.0035354 214.198164,20.0935138 213.20188,20.1239077 C211.938497,20.1625262 211.821705,21.3000615 211.529895,21.3057477 C211.359278,21.3092 211.405317,21.2350092 211.237408,21.2404585 C210.250602,21.2705815 210.020742,21.49708 209.460142,21.5725569 C209.973348,21.7583046 210.825082,21.6040338 211.243163,22.4271723 C211.291572,22.4972338 211.217435,22.8593877 211.295973,23.3277846 C211.437477,24.1732954 212.25265,24.8742831 212.812235,24.8582738 C213.322057,24.8441262 213.611497,24.3357908 213.610143,24.0748031 C213.609466,23.9322769 213.583399,23.5534708 213.533636,23.3650831 C213.163965,22.2143138 212.921579,22.4352277 212.430715,21.5224646 C212.430715,21.5224646 212.357932,21.5004985 212.527873,21.4959969 C213.063084,21.4818492 215.014014,23.1459969 215.717135,23.1134708 C215.886737,23.1060923 216.6122,22.8335969 217.143687,22.5435354 C217.191419,22.4935446 217.360344,22.3419138 217.38438,22.2694492 C217.480521,22.0741569 217.479167,21.8368615 217.47849,21.6704062 C217.475105,21.0299692 216.77537,19.8403108 216.546187,19.2046462 C216.363721,18.69868 216.10204,17.6121508 216.100008,17.1376615 C216.097639,16.6631385 216.031288,16.1520277 216.359659,15.8434523 C216.780786,15.4473169 218.616618,17.0463108 219.439915,17.4650215 C219.29401,17.2135446 218.957853,16.8377846 218.710051,16.4685231" id="path146" fill="#FFFFFF" fill-rule="nonzero"></path>
                    <path d="M222.934528,22.2433877 C222.259167,21.9242523 221.575681,20.0816 221.258482,19.2287108 C221.646095,19.6720277 223.050305,21.3545538 223.126135,22.1546769 C223.078741,22.2301877 222.934528,22.2433877 222.934528,22.2433877 Z M224.606513,15.3400923 C224.221946,15.1417877 223.804881,14.8588677 223.330605,14.7044277 C222.863099,14.55212 221.678932,14.3640031 221.523548,14.3640031 C221.390507,14.3640031 221.088541,14.3297508 220.921309,14.3646462 C220.540127,14.4448954 220.149806,14.7955415 219.815003,15.0645846 C219.355622,15.4335754 218.872205,17.2168615 218.81364,17.8152277 C218.800438,17.9506123 218.93551,18.0447723 218.960561,18.1855723 C219.353929,19.5600308 219.967678,21.46892 221.324156,22.8320062 C221.421313,22.9426831 221.596331,22.9869538 221.710754,23.0140646 C221.799109,23.0350831 221.872908,23.2928892 221.953139,23.3260923 C222.057405,23.36972 222.338721,23.4597508 222.555717,23.4404585 C222.699591,23.4280031 222.915571,23.3135354 223.08348,23.2505815 C223.491405,23.0472338 224.042188,22.6383046 224.448759,22.2180031 C224.63935,22.0088677 224.769683,21.3887723 224.779839,21.2584308 C224.790333,21.1240954 224.706717,21.0286492 224.682004,20.8884923 C224.604143,19.6856338 223.422007,18.6164338 222.453482,17.3715385 C222.259844,17.1749262 221.945353,16.8696677 221.631538,16.7054462 C221.607164,16.6600923 220.654211,16.2976 220.664028,15.9990431 C220.676554,15.6338769 221.191792,15.4828892 221.360717,15.4694185 C221.528965,15.4557785 221.583129,15.4690123 221.770334,15.4596369 C222.492074,15.4220677 223.553694,15.8623385 224.346863,16.1263723 C225.009698,16.3466431 226.030695,17.0439077 226.893601,17.34788 C226.484322,16.84892 225.256823,15.7256338 224.606513,15.3400923 Z" id="path148" fill="#FFFFFF" fill-rule="nonzero"></path>
                    <path d="M234.259946,76.6828615 L234.577146,76.6828615 C235.028064,76.6828615 235.308025,76.7004615 235.417031,76.7349846 C235.525698,76.7698462 235.611684,76.8304308 235.674989,76.9170769 C235.737278,77.0037231 235.769099,77.1025538 235.769099,77.2125538 C235.769099,77.3198462 235.738632,77.4152923 235.677358,77.4988923 C235.615746,77.5824923 235.528068,77.6424 235.414661,77.6786154 C235.300578,77.7148308 235.02197,77.7331077 234.577146,77.7331077 L234.259946,77.7331077 L234.259946,76.6828615 Z M233.479303,74.4977538 L233.479303,78.3433538 L234.259946,78.3433538 C234.991841,78.3433538 235.401797,78.3399692 235.490492,78.3335385 C235.748788,78.3118769 235.949534,78.2604308 236.093408,78.1798769 C236.236943,78.0996615 236.356443,77.9764615 236.453262,77.8112923 C236.549065,77.6454462 236.596797,77.462 236.596797,77.2602769 C236.596797,76.9824 236.506749,76.7454769 236.32496,76.5481538 C236.143848,76.3511692 235.889276,76.2289846 235.561582,76.1816 C235.677697,76.1372615 235.767407,76.0895385 235.830711,76.0374154 C235.893677,75.9852923 235.980678,75.8868 236.0907,75.7419385 C236.119475,75.7040308 236.213924,75.548 236.374724,75.2735077 L236.829027,74.4977538 L235.863887,74.4977538 L235.542286,75.1222154 C235.324613,75.5415692 235.144856,75.8055692 235.002674,75.9145538 C234.860831,76.0232 234.681074,76.0773538 234.463739,76.0773538 L234.259946,76.0773538 L234.259946,74.4977538 L233.479303,74.4977538 Z M235.121159,79.3506154 C234.622847,79.3506154 234.144847,79.2260615 233.687836,78.9769538 C233.230486,78.7278462 232.869955,78.3700923 232.606919,77.9033538 C232.343545,77.4366154 232.211858,76.9478769 232.211858,76.4368 C232.211858,75.9294462 232.339822,75.4451077 232.597441,74.9851385 C232.854382,74.5248308 233.212882,74.1650462 233.673618,73.9064615 C234.134014,73.6482154 234.616754,73.5185846 235.121159,73.5185846 C235.628949,73.5185846 236.112365,73.6482154 236.571069,73.9064615 C237.029773,74.1650462 237.388612,74.5248308 237.647246,74.9851385 C237.905881,75.4451077 238.035537,75.9294462 238.035537,76.4368 C238.035537,76.9478769 237.903511,77.4366154 237.640476,77.9033538 C237.376763,78.3700923 237.015894,78.7278462 236.556851,78.9769538 C236.098147,79.2260615 235.61947,79.3506154 235.121159,79.3506154 Z M235.116419,80.0600308 C235.737278,80.0600308 236.334101,79.9050154 236.904857,79.5943077 C237.475613,79.2836 237.924161,78.8381846 238.250501,78.2580615 C238.576841,77.6776 238.74035,77.0707385 238.74035,76.4368 C238.74035,75.8062462 238.580227,75.2048 238.25998,74.6328 C237.939395,74.0601231 237.493894,73.6140308 236.920768,73.2941846 C236.348657,72.974 235.747095,72.8139077 235.116419,72.8139077 C234.485744,72.8139077 233.884181,72.974 233.311732,73.2941846 C232.738945,73.6140308 232.293105,74.0601231 231.97252,74.6328 C231.652612,75.2048 231.492827,75.8062462 231.492827,76.4368 C231.492827,77.0707385 231.655997,77.6776 231.982337,78.2580615 C232.309016,78.8381846 232.757225,79.2836 233.32832,79.5943077 C233.898738,79.9050154 234.495222,80.0600308 235.116419,80.0600308 Z" id="path150" fill="#24201F" fill-rule="nonzero"></path>
                </g>
            </g>
        </g>
    </g>
</svg>