<svg xmlns="http://www.w3.org/2000/svg" viewBox="-222 15344.004 247.609 121.514">
  <defs>
    <style>
      .cls-1, .cls-5 {
        fill: #445a66;
      }

      .cls-2 {
        fill: none;
      }

      .cls-3 {
        fill: #e83978;
      }

      .cls-4 {
        fill: #909da9;
      }

      .cls-4, .cls-7 {
        opacity: 0.7;
      }

      .cls-5, .cls-6 {
        opacity: 0.8;
      }

      .cls-6 {
        fill: #67737d;
      }

      .cls-7 {
        fill: #627d8c;
      }

      .cls-8 {
        fill: #fff;
      }
    </style>
  </defs>
  <g id="Symbol_9_17" data-name="Symbol 9 – 17" transform="translate(-376 15344)">
    <path id="Subtraction_8" data-name="Subtraction 8" class="cls-1" d="M509.642,20215.658l-123.5-25.539v-95.975H633.752v95.848Z" transform="translate(-232.143 -20094.141)"/>
    <g id="Group_233" data-name="Group 233" transform="translate(154 5)">
      <rect id="Rectangle_130" data-name="Rectangle 130" class="cls-2" width="247.607" height="97.789"/>
      <g id="Group_98" data-name="Group 98" transform="translate(15.609 13.415)">
        <path id="Path_115" data-name="Path 115" class="cls-3" d="M99.763,50.737,61.4,21.4V46.035l19.307-9.842v24.7L99.763,75.435Z" transform="translate(-38.52 -21.4)"/>
        <path id="Path_116" data-name="Path 116" class="cls-4" d="M39.631,60.621,24.9,49.4V74.411L39.631,85.695Z" transform="translate(-24.9 -31.848)"/>
        <path id="Path_117" data-name="Path 117" class="cls-4" d="M72.1,119.271V94.2L67.9,91,48.4,101.218Z" transform="translate(-33.669 -47.371)"/>
        <path id="Path_118" data-name="Path 118" class="cls-5" d="M48.4,107.3Z" transform="translate(-33.669 -53.453)"/>
        <path id="Path_119" data-name="Path 119" class="cls-6" d="M56.549,60.7,48.4,64.837,67.9,79.694l7.961-4.137h0L56.549,60.763Z" transform="translate(-33.669 -36.065)"/>
        <path id="Path_120" data-name="Path 120" class="cls-3" d="M61.4,54.842V54.9L80.707,69.7V45Z" transform="translate(-38.52 -30.206)"/>
        <path id="Path_121" data-name="Path 121" class="cls-5" d="M61.4,54.842V54.9L80.707,69.7V45Z" transform="translate(-38.52 -30.206)"/>
        <path id="Path_122" data-name="Path 122" class="cls-7" d="M48.4,67.3V92.374h0L67.9,82.156Z" transform="translate(-33.669 -38.527)"/>
        <path id="Path_123" data-name="Path 123" class="cls-5" d="M48.4,67.3V92.374h0L67.9,82.156Z" transform="translate(-33.669 -38.527)"/>
      </g>
      <g id="Group_99" data-name="Group 99" transform="translate(84.751 37.172)">
        <path id="Path_124" data-name="Path 124" class="cls-8" d="M135.2,60.4h2.131V73.564h18.618V60.4h2.131V89.987h-2.131V75.57H137.331V89.987H135.2Z" transform="translate(-135.2 -59.71)"/>
        <path id="Path_125" data-name="Path 125" class="cls-8" d="M182.1,60.4H191a15.711,15.711,0,0,1,4.889.627,9.509,9.509,0,0,1,3.26,1.755,6.87,6.87,0,0,1,1.818,2.633,9.478,9.478,0,0,1,.564,3.322,9.006,9.006,0,0,1-1.5,5.14,7.4,7.4,0,0,1-4.7,3.009l7.083,13.1h-2.445l-6.9-12.85h-8.776v12.85h-2.131V60.4Zm9.779,14.794q7.334,0,7.334-6.394a5.722,5.722,0,0,0-1.943-4.764,8.766,8.766,0,0,0-5.642-1.63h-7.4V75.194Z" transform="translate(-152.701 -59.71)"/>
        <path id="Path_126" data-name="Path 126" class="cls-8" d="M226.809,84.032a8.583,8.583,0,0,0,2.57,2.131,7.1,7.1,0,0,0,5.14.376,4.591,4.591,0,0,0,1.63-1.066,5.273,5.273,0,0,0,1.128-1.818,8.335,8.335,0,0,0,.376-2.633V60.4h4.263V81.274a11.466,11.466,0,0,1-.752,4.388,8.45,8.45,0,0,1-2.006,2.946,7.153,7.153,0,0,1-2.946,1.63,13.3,13.3,0,0,1-3.573.5,11.454,11.454,0,0,1-5.391-1.128,10.518,10.518,0,0,1-3.448-2.946Z" transform="translate(-168.261 -59.71)"/>
        <path id="Path_127" data-name="Path 127" class="cls-8" d="M261.4,60.4h18.618v3.761H265.663v8.588h10.845v3.824H265.663v9.591h15.421v3.824H261.4V60.4Z" transform="translate(-182.291 -59.71)"/>
        <path id="Path_128" data-name="Path 128" class="cls-8" d="M298.672,82.431c.439.5.878.94,1.379,1.442a9.174,9.174,0,0,0,1.755,1.316,10.054,10.054,0,0,0,2.194.94,8.91,8.91,0,0,0,2.633.376,7.224,7.224,0,0,0,4.576-1.316,4.409,4.409,0,0,0,1.63-3.573,4.03,4.03,0,0,0-1.881-3.636,17.388,17.388,0,0,0-5.391-2.006,13.914,13.914,0,0,1-3.448-1.128,10.542,10.542,0,0,1-2.7-1.755,7.607,7.607,0,0,1-1.755-2.445,7.468,7.468,0,0,1-.627-3.2,7.778,7.778,0,0,1,.627-3.134,7.571,7.571,0,0,1,1.881-2.57,8.888,8.888,0,0,1,3.134-1.755,13.041,13.041,0,0,1,4.325-.69,13.474,13.474,0,0,1,3.761.439,12.025,12.025,0,0,1,2.7,1.128,6.849,6.849,0,0,1,1.755,1.379c.439.5.752.878,1,1.128L313.4,66.007a9.789,9.789,0,0,0-.815-.815,8.746,8.746,0,0,0-1.379-1,8.516,8.516,0,0,0-1.88-.815,7.856,7.856,0,0,0-2.507-.313,7.157,7.157,0,0,0-2.445.376,4.5,4.5,0,0,0-1.693,1,3.857,3.857,0,0,0-1.316,2.884,3.485,3.485,0,0,0,.439,1.881,4.134,4.134,0,0,0,1.379,1.379,7.944,7.944,0,0,0,2.194,1c.878.251,1.881.564,3.009.815a19.133,19.133,0,0,1,3.2,1.066,9.3,9.3,0,0,1,2.821,1.755,9.177,9.177,0,0,1,2.006,2.633,8.851,8.851,0,0,1,.752,3.824,7.422,7.422,0,0,1-.815,3.51,7.789,7.789,0,0,1-2.194,2.758,9.453,9.453,0,0,1-3.322,1.818,12.457,12.457,0,0,1-4.137.627,14.841,14.841,0,0,1-3.824-.5,15.576,15.576,0,0,1-3.134-1.254,12.023,12.023,0,0,1-2.445-1.693,11.214,11.214,0,0,1-1.693-1.818Z" transform="translate(-195.053 -59.3)"/>
        <path id="Path_129" data-name="Path 129" class="cls-8" d="M337.372,82.431c.439.5.878.94,1.379,1.442a9.172,9.172,0,0,0,1.755,1.316,10.052,10.052,0,0,0,2.194.94,8.91,8.91,0,0,0,2.633.376,7.224,7.224,0,0,0,4.576-1.316,4.409,4.409,0,0,0,1.63-3.573,4.03,4.03,0,0,0-1.881-3.636,17.389,17.389,0,0,0-5.391-2.006,13.913,13.913,0,0,1-3.448-1.128,10.541,10.541,0,0,1-2.7-1.755,7.607,7.607,0,0,1-1.755-2.445,7.468,7.468,0,0,1-.627-3.2,7.777,7.777,0,0,1,.627-3.134,7.571,7.571,0,0,1,1.881-2.57,8.889,8.889,0,0,1,3.134-1.755,13.041,13.041,0,0,1,4.325-.69,13.475,13.475,0,0,1,3.761.439,12.025,12.025,0,0,1,2.7,1.128,6.849,6.849,0,0,1,1.755,1.379c.439.5.752.878,1,1.128L352.1,66.007a9.781,9.781,0,0,0-.815-.815,8.744,8.744,0,0,0-1.379-1,8.518,8.518,0,0,0-1.881-.815,7.856,7.856,0,0,0-2.507-.313,7.157,7.157,0,0,0-2.445.376,4.5,4.5,0,0,0-1.693,1,3.857,3.857,0,0,0-1.316,2.884,3.484,3.484,0,0,0,.439,1.881,4.134,4.134,0,0,0,1.379,1.379,7.944,7.944,0,0,0,2.194,1c.878.251,1.881.564,3.009.815a19.133,19.133,0,0,1,3.2,1.066,9.3,9.3,0,0,1,2.821,1.755,9.176,9.176,0,0,1,2.006,2.633,8.851,8.851,0,0,1,.752,3.824,7.421,7.421,0,0,1-.815,3.51,7.789,7.789,0,0,1-2.194,2.758,9.453,9.453,0,0,1-3.322,1.818,12.457,12.457,0,0,1-4.137.627,14.841,14.841,0,0,1-3.824-.5,15.576,15.576,0,0,1-3.134-1.254,12.022,12.022,0,0,1-2.445-1.693,11.211,11.211,0,0,1-1.693-1.818Z" transform="translate(-209.494 -59.3)"/>
      </g>
    </g>
  </g>
</svg>
