<svg xmlns="http://www.w3.org/2000/svg" width="52.883" height="52.883" viewBox="0 0 52.883 52.883">
  <g id="Group_627" data-name="Group 627" transform="translate(20355.389 17229.512)">
    <circle id="Ellipse_20" data-name="Ellipse 20" cx="26.441" cy="26.441" r="26.441" transform="translate(-20355.389 -17229.512)" fill="#fff"/>
    <g id="Group_626" data-name="Group 626" transform="translate(-37834.188 -17667.279)">
      <g id="Group_625" data-name="Group 625" transform="translate(17489.93 450.013)">
        <path id="Path_743" data-name="Path 743" d="M1441.414,465.2c0,2.3.073,4.594-.014,6.886a8.127,8.127,0,0,1-8.217,8.179q-6.917.157-13.841-.006a8.061,8.061,0,0,1-8.123-8.117q-.168-6.951,0-13.909a8.068,8.068,0,0,1,8.168-8.142q6.883-.149,13.772,0a8.127,8.127,0,0,1,8.24,8.156C1441.484,460.559,1441.413,462.88,1441.414,465.2Zm-2.53.05-.133,0c0-2.09,0-4.181-.006-6.271,0-.365-.07-.731-.108-1.1a5.193,5.193,0,0,0-4.45-4.9,23.507,23.507,0,0,0-4.111-.277c-3.674.008-7.35.011-11.019.165a5.036,5.036,0,0,0-4.945,4.371,20.8,20.8,0,0,0-.28,3.766c.008,3.788-.015,7.581.161,11.363a5.072,5.072,0,0,0,5.13,5.109c4.838.149,9.687.136,14.525-.009a5.128,5.128,0,0,0,4.969-4.992C1438.794,470.072,1438.8,467.657,1438.883,465.248Z" transform="translate(-1411.135 -450.013)" fill="#282b2c"/>
        <path id="Path_744" data-name="Path 744" d="M1462.65,493.63a7.812,7.812,0,1,1-7.848,7.645A7.762,7.762,0,0,1,1462.65,493.63Zm-5.146,7.824a5.1,5.1,0,1,0,5.051-5.115A5.125,5.125,0,0,0,1457.5,501.454Z" transform="translate(-1447.443 -486.279)" fill="#282b2c"/>
        <path id="Path_745" data-name="Path 745" d="M1540.519,484.467a1.782,1.782,0,0,1-1.8-1.786,1.817,1.817,0,0,1,1.832-1.838,1.854,1.854,0,0,1,1.811,1.8A1.815,1.815,0,0,1,1540.519,484.467Z" transform="translate(-1517.219 -475.648)" fill="#282b2c"/>
      </g>
    </g>
  </g>
</svg>
