<svg xmlns="http://www.w3.org/2000/svg" width="550.439" height="550.439" viewBox="0 0 550.439 550.439">
  <g id="Group_841" data-name="Group 841" transform="translate(-456.848 -2178.324)" opacity="0.154">
    <path id="Path_820" data-name="Path 820" d="M502.06,64.5H453.682V16.126A16.174,16.174,0,0,0,437.556,0H308.547a16.174,16.174,0,0,0-16.126,16.126V64.5H244.042c-21.636,0-39.509,14.648-45.825,33.73l-18.948.672a48.469,48.469,0,0,0-45.288,32.252h-85.6A48.348,48.348,0,0,0,0,179.538V437.556a48.434,48.434,0,0,0,48.378,48.378h85.6a48.45,48.45,0,0,0,45.556,32.252h18.948a48.45,48.45,0,0,0,45.556,32.252H502.06a48.521,48.521,0,0,0,48.378-48.378v-388.1c0-26.743-21.636-49.453-48.378-49.453Zm-370.9,389.177H48.378a16.174,16.174,0,0,1-16.126-16.126V292.421h98.907Zm0-193.514H32.252V227.916h98.907Zm0-64.5H32.252V179.538a16.174,16.174,0,0,1,16.126-16.126h82.781Zm64.5,290.27H179.538a16.174,16.174,0,0,1-16.126-16.126V147.285a16.174,16.174,0,0,1,16.126-16.126h.538l15.589-.538ZM324.673,32.252h32.252V48.378a16.126,16.126,0,0,0,32.252,0V32.252H421.43v98.907H324.673ZM518.187,502.06a16.174,16.174,0,0,1-16.126,16.126H244.042a16.174,16.174,0,0,1-16.126-16.126v-388.1c0-9.138,7.525-17.2,16.126-17.2h48.378v34.4H276.294a16.126,16.126,0,0,0,0,32.252H469.808a16.126,16.126,0,1,0,0-32.252H453.682v-34.4H502.06c8.6,0,16.126,8.063,16.126,17.2Zm0,0" transform="translate(456.848 2178.325)" fill="#fff"/>
    <path id="Path_821" data-name="Path 821" d="M403.24,145.6H209.726A16.174,16.174,0,0,0,193.6,161.726v64.5a16.174,16.174,0,0,0,16.126,16.126H403.24a16.174,16.174,0,0,0,16.126-16.126v-64.5A16.174,16.174,0,0,0,403.24,145.6Zm-16.126,64.5H225.852V177.852H387.114Zm0,0" transform="translate(523.419 2228.388)" fill="#fff"/>
    <path id="Path_822" data-name="Path 822" d="M337.978,241.6H305.726a16.126,16.126,0,1,0,0,32.252h32.252a16.126,16.126,0,1,0,0-32.252Zm0,0" transform="translate(556.426 2261.4)" fill="#fff"/>
    <path id="Path_823" data-name="Path 823" d="M265.978,241.6H233.726a16.126,16.126,0,1,0,0,32.252h32.252a16.126,16.126,0,1,0,0-32.252Zm0,0" transform="translate(531.666 2261.4)" fill="#fff"/>
    <path id="Path_824" data-name="Path 824" d="M337.978,289.6H305.726a16.126,16.126,0,1,0,0,32.252h32.252a16.126,16.126,0,1,0,0-32.252Zm0,0" transform="translate(556.426 2277.901)" fill="#fff"/>
    <path id="Path_825" data-name="Path 825" d="M337.978,337.6H305.726a16.126,16.126,0,1,0,0,32.252h32.252a16.126,16.126,0,1,0,0-32.252Zm0,0" transform="translate(556.426 2294.407)" fill="#fff"/>
    <path id="Path_826" data-name="Path 826" d="M265.978,289.6H233.726a16.126,16.126,0,1,0,0,32.252h32.252a16.126,16.126,0,0,0,0-32.252Zm0,0" transform="translate(531.666 2277.901)" fill="#fff"/>
    <path id="Path_827" data-name="Path 827" d="M265.978,337.6H233.726a16.126,16.126,0,1,0,0,32.252h32.252a16.126,16.126,0,1,0,0-32.252Zm0,0" transform="translate(531.666 2294.407)" fill="#fff"/>
  </g>
</svg>
