<svg xmlns="http://www.w3.org/2000/svg" width="55.846" height="84.838" viewBox="0 0 55.846 84.838">
  <g id="Group_618" data-name="Group 618" transform="matrix(0.978, -0.208, 0.208, 0.978, 0, 8.418)">
    <g id="Group_234" data-name="Group 234" transform="translate(0 0)">
      <path id="Path_325" data-name="Path 325" d="M39.9,76.848a4.457,4.457,0,0,1-3.4,1.318l-16.661-.044a8.319,8.319,0,0,1-2.544-.322,9.144,9.144,0,0,1-2.362-1c-.036-.029-.182-.132-.418-.278s-.509-.366-.854-.63a35.54,35.54,0,0,1-3.452-3.442,31.919,31.919,0,0,1-4.524-6.9A53.565,53.565,0,0,1,1.723,54.6,61.114,61.114,0,0,1,.088,39.092a64.487,64.487,0,0,1,1-12.58,56.16,56.16,0,0,1,2.671-9.666A40.858,40.858,0,0,1,7.21,9.8a35.81,35.81,0,0,1,3.525-4.76,19.163,19.163,0,0,1,2.871-2.709c.8-.571,1.235-.893,1.326-.967a9.682,9.682,0,0,1,2.362-1A7.952,7.952,0,0,1,19.837.047H36.571A4.462,4.462,0,0,1,39.46.955a2.554,2.554,0,0,1,.981,1.552,4.055,4.055,0,0,1-.091,1.8L34.318,20.024a3.618,3.618,0,0,1-1.89,2.021,6.486,6.486,0,0,1-3.089.762H23.18a1.771,1.771,0,0,0-.636.146,2.225,2.225,0,0,0-.563.308,12.216,12.216,0,0,0-1.89,3.339,24.729,24.729,0,0,0-1.344,4.848,36.735,36.735,0,0,0-.527,7.63,38.681,38.681,0,0,0,.527,7.674,26.888,26.888,0,0,0,1.326,4.862,10.679,10.679,0,0,0,1.344,2.563l.636.762a2.251,2.251,0,0,0,.509.249,1.694,1.694,0,0,0,.636.146l7.231-.044a6.245,6.245,0,0,1,3.652,1.318,3.861,3.861,0,0,1,1.326,1.67l.055.044,4.96,15.568a3.109,3.109,0,0,1-.527,2.958Zm0,0" transform="translate(-0.085 -0.038)" fill="#697a84"/>
    </g>
  </g>
</svg>
