<?xml version="1.0" encoding="UTF-8"?>
<svg width="76px" height="118px" viewBox="0 0 76 118" version="1.1" xmlns="http://www.w3.org/2000/svg" xmlns:xlink="http://www.w3.org/1999/xlink">
    <!-- Generator: Sketch 49.2 (51160) - http://www.bohemiancoding.com/sketch -->
    <title>Group 2</title>
    <desc>Created with Sketch.</desc>
    <defs></defs>
    <g id="Page-1" stroke="none" stroke-width="1" fill="none" fill-rule="evenodd">
        <g id="HR-JESS-–-PORTFOLIO-–-3" transform="translate(-923.000000, -2063.000000)">
            <g id="Group-2" transform="translate(934.000000, 2074.000000)">
                <path d="M10.412,94.002 L52.312,52.102 C54.5654398,49.8389682 54.5654398,46.1800318 52.312,43.917 L10.412,2.057 C8.75746246,0.385329253 6.25651932,-0.120260888 4.08255789,0.777441307 C1.90859645,1.6751435 0.493025631,3.7979947 0.5,6.15 L0.5,89.91 C0.509089457,92.2542024 1.92606267,94.3632901 4.09289579,95.2578301 C6.25972891,96.1523702 8.75186949,95.6570935 10.412,94.002 Z" id="Path_437" stroke="#FFFFFF" stroke-width="22" opacity="0.713"></path>
                <path d="M10.412,94.002 L52.312,52.102 C54.5654398,49.8389682 54.5654398,46.1800318 52.312,43.917 L10.412,2.057 C8.75746246,0.385329253 6.25651932,-0.120260888 4.08255789,0.777441307 C1.90859645,1.6751435 0.493025631,3.7979947 0.5,6.15 L0.5,89.91 C0.509089457,92.2542024 1.92606267,94.3632901 4.09289579,95.2578301 C6.25972891,96.1523702 8.75186949,95.6570935 10.412,94.002 Z" id="Path_438" fill="#FFFFFF" fill-rule="nonzero"></path>
            </g>
        </g>
    </g>
</svg>