<svg xmlns="http://www.w3.org/2000/svg" xmlns:xlink="http://www.w3.org/1999/xlink" width="560.291" height="757.083" viewBox="0 0 560.291 757.083">
  <defs>
    <clipPath id="clip-path">
      <rect id="Rectangle_1261" data-name="Rectangle 1261" width="560.291" height="757.083" transform="translate(678)" fill="#fff" stroke="#707070" stroke-width="1"/>
    </clipPath>
  </defs>
  <g id="Mask_Group_34" data-name="Mask Group 34" transform="translate(-678)" clip-path="url(#clip-path)">
    <g id="Group_801" data-name="Group 801" transform="translate(657.705 -103.982)">
      <path id="Path_1213" data-name="Path 1213" d="M35.777-251.953v-48.879q34.014-1.512,47.619-4.535,21.668-4.787,35.273-19.148,9.322-9.826,14.109-26.2,2.771-9.826,2.771-14.613h59.713V0h-73.57V-251.953Z" transform="translate(0 397)" fill="#fff"/>
      <path id="Path_1214" data-name="Path 1214" d="M16.125,0q1.008-39.3,16.881-71.807,15.369-36.533,72.563-77.35,49.635-35.525,64.248-50.895,22.424-23.936,22.424-52.406,0-23.18-12.85-38.549t-36.785-15.369q-32.754,0-44.6,24.439-6.8,14.109-8.062,44.848H20.156Q21.92-283.7,37.037-312.422,65.76-367.1,139.078-367.1q57.949,0,92.215,32.124t34.266,85.034q0,40.564-24.187,72.059-15.873,20.912-52.154,46.611l-28.723,20.408q-26.959,19.148-36.911,27.715a81.219,81.219,0,0,0-16.755,19.9H266.314V0Z" transform="translate(106.737 635.469)" fill="#fff"/>
      <path id="Path_1215" data-name="Path 1215" d="M84.152-112.119q0,21.92,7.055,36.281,13.1,26.455,47.619,26.455A52.768,52.768,0,0,0,175.737-63.87q15.747-14.487,15.747-41.7,0-36.029-29.227-48.123-16.629-6.8-52.406-6.8v-51.4q35.021-.5,48.879-6.8,23.936-10.582,23.936-42.832,0-20.912-12.22-34.014t-34.392-13.1q-25.447,0-37.415,16.125T87.176-249.434H20.156a180.2,180.2,0,0,1,9.322-51.65Q38.3-322.5,57.193-340.641A96.554,96.554,0,0,1,90.7-360.293q19.4-6.8,47.619-6.8,52.406,0,84.53,27.085t32.124,72.688q0,32.25-19.148,54.422-12.094,13.857-25.2,18.9,9.826,0,28.219,16.881,27.463,25.447,27.463,69.539,0,46.359-32.124,81.507T139.078,9.07q-77.6,0-107.836-50.643Q15.369-68.531,13.605-112.119Z" transform="translate(293.355 886.376)" fill="#fff"/>
    </g>
  </g>
</svg>
